<svg width="24" height="24" viewBox="0 0 24 24" fill="none" xmlns="http://www.w3.org/2000/svg">
<path fill-rule="evenodd" clip-rule="evenodd" d="M18 24H6C4.896 24 4 23.104 4 22V2C4 0.896 4.896 0 6 0H18C19.104 0 20 0.896 20 2V22C20 23.104 19.104 24 18 24ZM19 18.917H5V22C5 22.552 5.449 23 6 23H18C18.552 23 19 22.552 19 22V18.917ZM12 21.917C11.447 21.917 11 21.469 11 20.917C11 20.365 11.447 19.917 12 19.917C12.552 19.917 12.999 20.365 12.999 20.917C12.999 21.469 12.552 21.917 12 21.917ZM19 4.917H5V17.917H19V4.917ZM18 1H6C5.449 1 5 1.449 5 2V3.917H19V2C19 1.449 18.552 1 18 1ZM13.5 2.917H10.5C10.224 2.917 10 2.693 10 2.417C10 2.141 10.224 1.917 10.5 1.917H13.5C13.776 1.917 14 2.141 14 2.417C14 2.693 13.776 2.917 13.5 2.917Z" fill="#333333"/>
</svg>
